<!-- Generated by IcoMoon.io -->
<svg version="1.1" xmlns="http://www.w3.org/2000/svg" width="36" height="32" viewBox="0 0 36 32">
<title>danceter</title>
<path d="M19.497 6.721c0 0-0.030 2.361 0.817 3.209-4.269 1.998-2.937 1.393-5.782 2.725 0.091 4.148 0.999 7.236 2.452 11.928-0.121 0.061-1.998 0.848-2.119 0.908-0.272-0.394-0.545-0.817-0.848-1.211-0.848-1.029-1.605-2.24-2.664-3.027-1.816-1.393-4.39-0.999-5.389 0.605-0.969 1.544-0.303 4.269 1.635 5.237 1.332 0.666 2.967 1.029 4.481 0.999 8.78-0.121 16.893-9.627 15.44-17.953-0.605-3.421-2.725-5.601-6.206-6.085-2.876-0.394-5.752-0.182-8.477 0.908-2.21 0.878-3.815 2.271-3.966 4.844 0 0.151-0.151 0.333-0.303 0.636-0.878-1.665-0.696-3.179 0.303-4.359 0.969-1.15 2.21-2.271 3.542-2.937 4.117-1.968 8.477-2.24 12.836-0.908 7.508 2.271 10.414 9.173 6.751 16.409-3.36 6.479-8.992 10.142-16.106 11.535-2.422 0.484-5.026 0.515-7.478 0.303-2.906-0.242-5.268-1.726-6.539-4.511-0.878-1.938-0.969-3.966 0.333-5.752 1.332-1.816 3.33-2.422 5.389-1.938 1.635 0.363 3.149 1.302 4.39 1.877-0.363-1.514-0.938-3.482-1.332-5.51-0.030-0.121-0.061-0.272-0.061-0.394l-4.269 1.332c0 0 0.151-2.846 0.272-3.663z"></path>
</svg>
